<svg width="282" height="38" viewBox="0 0 282 38" fill="none" xmlns="http://www.w3.org/2000/svg">
<rect x="0.5" y="0.5" width="281" height="37" rx="5.5" fill="white" stroke="#9F9F9F"/>
<path d="M92.8764 16.2679H91.8444C91.8444 15.9799 91.7844 15.7319 91.6644 15.5239C91.5524 15.3159 91.4084 15.1439 91.2324 15.0079C91.0644 14.8719 90.8644 14.7719 90.6324 14.7079C90.4084 14.6359 90.1804 14.5919 89.9484 14.5759C89.5644 14.5759 89.2004 14.6479 88.8564 14.7919C88.5124 14.9359 88.2084 15.1639 87.9444 15.4759C87.6804 15.7719 87.4764 16.1599 87.3324 16.6399C87.1884 17.1119 87.1164 17.5879 87.1164 18.0679C87.1164 18.3639 87.1564 18.7279 87.2364 19.1599C87.3164 19.5839 87.4684 19.9999 87.6924 20.4079C87.9084 20.7919 88.2244 21.1239 88.6404 21.4039C89.0564 21.6759 89.5884 21.8119 90.2364 21.8119C90.5884 21.8119 90.9244 21.7759 91.2444 21.7039C91.5644 21.6319 91.7604 21.5719 91.8324 21.5239V18.7639H89.7324V17.9359H92.7924V22.0039C92.3764 22.2119 91.9524 22.3639 91.5204 22.4599C91.0884 22.5559 90.5804 22.6039 89.9964 22.6039C89.3164 22.6039 88.7324 22.4719 88.2444 22.2079C87.7564 21.9439 87.3484 21.5959 87.0204 21.1639C86.6844 20.7239 86.4484 20.2359 86.3124 19.6999C86.1764 19.1639 86.1084 18.6199 86.1084 18.0679C86.1084 17.4999 86.1804 16.9599 86.3244 16.4479C86.4764 15.9359 86.7164 15.4839 87.0444 15.0919C87.3644 14.7079 87.7644 14.3959 88.2444 14.1559C88.7324 13.9079 89.2964 13.7839 89.9364 13.7839C90.3364 13.7839 90.7084 13.8439 91.0524 13.9639C91.4044 14.0839 91.7164 14.2519 91.9884 14.4679C92.2524 14.6839 92.4644 14.9439 92.6244 15.2479C92.7924 15.5519 92.8764 15.8919 92.8764 16.2679ZM97.24 22.6039C96.392 22.6039 95.692 22.3159 95.14 21.7399C94.588 21.1639 94.312 20.4239 94.312 19.5199C94.312 18.6319 94.584 17.8999 95.128 17.3239C95.68 16.7399 96.384 16.4479 97.24 16.4479C98.096 16.4479 98.796 16.7359 99.34 17.3119C99.892 17.8879 100.168 18.6239 100.168 19.5199C100.168 20.4239 99.892 21.1639 99.34 21.7399C98.788 22.3159 98.088 22.6039 97.24 22.6039ZM97.24 21.8839C97.816 21.8839 98.284 21.6559 98.644 21.1999C99.004 20.7359 99.184 20.1759 99.184 19.5199C99.184 18.8799 99.004 18.3279 98.644 17.8639C98.284 17.3999 97.816 17.1679 97.24 17.1679C96.664 17.1679 96.196 17.3999 95.836 17.8639C95.476 18.3279 95.296 18.8799 95.296 19.5199C95.296 20.1759 95.476 20.7359 95.836 21.1999C96.196 21.6559 96.664 21.8839 97.24 21.8839ZM104.224 22.6039C103.376 22.6039 102.676 22.3159 102.124 21.7399C101.572 21.1639 101.296 20.4239 101.296 19.5199C101.296 18.6319 101.568 17.8999 102.112 17.3239C102.664 16.7399 103.368 16.4479 104.224 16.4479C105.08 16.4479 105.78 16.7359 106.324 17.3119C106.876 17.8879 107.152 18.6239 107.152 19.5199C107.152 20.4239 106.876 21.1639 106.324 21.7399C105.772 22.3159 105.072 22.6039 104.224 22.6039ZM104.224 21.8839C104.8 21.8839 105.268 21.6559 105.628 21.1999C105.988 20.7359 106.168 20.1759 106.168 19.5199C106.168 18.8799 105.988 18.3279 105.628 17.8639C105.268 17.3999 104.8 17.1679 104.224 17.1679C103.648 17.1679 103.18 17.3999 102.82 17.8639C102.46 18.3279 102.28 18.8799 102.28 19.5199C102.28 20.1759 102.46 20.7359 102.82 21.1999C103.18 21.6559 103.648 21.8839 104.224 21.8839ZM113.633 22.0039C113.601 22.8599 113.337 23.4919 112.841 23.8999C112.305 24.3319 111.565 24.5479 110.621 24.5479C110.333 24.5479 109.993 24.5199 109.601 24.4639C109.217 24.4159 108.929 24.3479 108.737 24.2599V23.3239C108.961 23.4599 109.265 23.5639 109.649 23.6359C110.041 23.7079 110.405 23.7439 110.741 23.7439C111.341 23.7439 111.805 23.6159 112.133 23.3599C112.461 23.1119 112.641 22.7839 112.673 22.3759C112.705 22.1839 112.721 22.0079 112.721 21.8479V19.4119C112.721 19.0919 112.673 18.8079 112.577 18.5599C112.489 18.3119 112.365 18.0799 112.205 17.8639C112.053 17.6639 111.865 17.5039 111.641 17.3839C111.417 17.2559 111.185 17.1919 110.945 17.1919C110.721 17.1919 110.497 17.2519 110.273 17.3719C110.057 17.4839 109.873 17.6439 109.721 17.8519C109.561 18.0759 109.437 18.3119 109.349 18.5599C109.269 18.8079 109.229 19.0919 109.229 19.4119C109.229 19.7319 109.273 20.0199 109.361 20.2759C109.449 20.5239 109.569 20.7559 109.721 20.9719C109.873 21.1879 110.057 21.3519 110.273 21.4639C110.497 21.5759 110.721 21.6319 110.945 21.6319C111.161 21.6319 111.381 21.5919 111.605 21.5119C111.829 21.4319 112.009 21.3359 112.145 21.2239V21.9439C112.009 22.0559 111.821 22.1559 111.581 22.2439C111.349 22.3239 111.093 22.3639 110.813 22.3639C110.477 22.3639 110.145 22.2959 109.817 22.1599C109.489 22.0239 109.213 21.8239 108.989 21.5599C108.765 21.3039 108.585 20.9999 108.449 20.6479C108.321 20.2879 108.257 19.8559 108.257 19.3519C108.257 18.9599 108.313 18.6039 108.425 18.2839C108.537 17.9559 108.697 17.6519 108.905 17.3719C109.121 17.0919 109.401 16.8679 109.745 16.6999C110.097 16.5319 110.473 16.4479 110.873 16.4479C111.625 16.4479 112.241 16.7559 112.721 17.3719V16.5919H113.633V22.0039ZM116.481 22.4719H115.509V13.9399H116.481V22.4719ZM119.027 19.0879H122.315C122.315 18.5359 122.219 18.0959 122.027 17.7679C121.923 17.5919 121.771 17.4519 121.571 17.3479C121.371 17.2359 121.131 17.1799 120.851 17.1799C120.323 17.1799 119.887 17.3759 119.543 17.7679C119.247 18.0959 119.075 18.5359 119.027 19.0879ZM119.039 19.8199L119.063 19.9399C119.087 20.1239 119.135 20.3079 119.207 20.4919C119.295 20.7079 119.415 20.9159 119.567 21.1159C119.727 21.3079 119.951 21.4799 120.239 21.6319C120.343 21.6879 120.499 21.7399 120.707 21.7879C120.915 21.8359 121.151 21.8599 121.415 21.8599C121.623 21.8599 121.883 21.8359 122.195 21.7879C122.515 21.7319 122.811 21.6199 123.083 21.4519V22.1839C122.731 22.3679 122.359 22.4919 121.967 22.5559C121.575 22.6199 121.175 22.6319 120.767 22.5919C120.407 22.5599 120.063 22.4719 119.735 22.3279C119.407 22.1839 119.135 22.0039 118.919 21.7879C118.655 21.5239 118.439 21.1959 118.271 20.8039C118.103 20.4039 118.019 19.9359 118.019 19.3999C118.019 18.9679 118.079 18.5759 118.199 18.2239C118.319 17.8639 118.507 17.5519 118.763 17.2879C118.995 17.0319 119.287 16.8279 119.639 16.6759C119.991 16.5239 120.395 16.4479 120.851 16.4479C121.243 16.4479 121.599 16.5159 121.919 16.6519C122.247 16.7799 122.519 16.9719 122.735 17.2279C123.095 17.6599 123.275 18.3119 123.275 19.1839V19.8199H119.039ZM132.985 14.3479C132.913 14.9799 132.781 15.5959 132.589 16.1959H134.437V13.1239H135.337V22.9759H134.437V19.5799H132.481V18.7759H134.437V16.9999H132.445V16.6039C131.861 18.1719 130.857 19.6199 129.433 20.9479L128.725 20.3479C130.405 18.8359 131.473 17.1079 131.929 15.1639H128.761V14.3479H132.985ZM137.617 23.6959H136.681V12.8839H137.617V23.6959ZM143.33 16.3159L145.562 18.2959L144.914 18.9439L142.778 16.9759C142.066 17.7599 141.134 18.5039 139.982 19.2079L139.358 18.5719C141.39 17.3319 142.706 15.9799 143.306 14.5159H139.97V13.7119H144.434C144.298 14.6159 143.93 15.4839 143.33 16.3159ZM147.974 19.5679H147.026V16.4959H144.782V15.6799H147.026V12.8839H147.974V19.5679ZM147.866 21.9799C147.866 22.6039 147.622 23.1399 147.134 23.5879C146.646 24.0439 145.99 24.2719 145.166 24.2719C144.358 24.2719 143.71 24.0439 143.222 23.5879C142.734 23.1399 142.49 22.6039 142.49 21.9799C142.49 21.3559 142.734 20.8199 143.222 20.3719C143.71 19.9159 144.358 19.6879 145.166 19.6879C145.982 19.6879 146.634 19.9159 147.122 20.3719C147.618 20.8199 147.866 21.3559 147.866 21.9799ZM146.906 21.9799C146.906 21.5879 146.754 21.2439 146.45 20.9479C146.154 20.6519 145.726 20.5039 145.166 20.5039C144.614 20.5039 144.19 20.6519 143.894 20.9479C143.598 21.2439 143.45 21.5879 143.45 21.9799C143.45 22.3719 143.598 22.7159 143.894 23.0119C144.19 23.3079 144.614 23.4559 145.166 23.4559C145.726 23.4559 146.154 23.3079 146.45 23.0119C146.754 22.7159 146.906 22.3719 146.906 21.9799ZM156.39 13.7719C157.15 13.7719 157.786 14.0159 158.298 14.5039C158.81 14.9919 159.066 15.5879 159.066 16.2919C159.066 16.9959 158.81 17.5919 158.298 18.0799C157.786 18.5679 157.15 18.8119 156.39 18.8119C155.63 18.8119 154.994 18.5679 154.482 18.0799C153.97 17.5919 153.714 16.9959 153.714 16.2919C153.714 15.5879 153.97 14.9919 154.482 14.5039C154.994 14.0159 155.63 13.7719 156.39 13.7719ZM156.39 14.5759C155.886 14.5759 155.474 14.7439 155.154 15.0799C154.834 15.4159 154.674 15.8199 154.674 16.2919C154.674 16.7639 154.834 17.1679 155.154 17.5039C155.474 17.8399 155.886 18.0079 156.39 18.0079C156.894 18.0079 157.306 17.8399 157.626 17.5039C157.946 17.1679 158.106 16.7639 158.106 16.2919C158.106 15.8199 157.946 15.4159 157.626 15.0799C157.306 14.7439 156.894 14.5759 156.39 14.5759ZM162.306 20.8999H161.37V18.1159H159.414V17.2999H161.37V15.3919H159.414V14.5759H161.37V12.8839H162.306V20.8999ZM162.378 23.9959H156.558V20.3479H157.506V23.1799H162.378V23.9959ZM171.741 17.1319H169.485V18.4759H174.045V19.3039H163.869V18.4759H168.501V17.1319H166.137V13.3399H171.729V14.1559H167.121V16.3159H171.741V17.1319ZM166.197 22.1119C166.197 21.4799 166.457 20.9639 166.977 20.5639C167.497 20.1559 168.157 19.9519 168.957 19.9519C169.765 19.9519 170.429 20.1559 170.949 20.5639C171.477 20.9639 171.741 21.4799 171.741 22.1119C171.741 22.7439 171.477 23.2599 170.949 23.6599C170.429 24.0679 169.765 24.2719 168.957 24.2719C168.157 24.2719 167.497 24.0679 166.977 23.6599C166.457 23.2599 166.197 22.7439 166.197 22.1119ZM167.169 22.1119C167.169 22.5119 167.333 22.8319 167.661 23.0719C167.989 23.3199 168.421 23.4439 168.957 23.4439C169.501 23.4439 169.937 23.3199 170.265 23.0719C170.601 22.8319 170.769 22.5119 170.769 22.1119C170.769 21.7119 170.601 21.3919 170.265 21.1519C169.937 20.9039 169.501 20.7799 168.957 20.7799C168.421 20.7799 167.989 20.9039 167.661 21.1519C167.333 21.3919 167.169 21.7119 167.169 22.1119ZM179.845 14.6599H177.745C177.089 14.6599 176.505 14.5199 175.993 14.2399L176.293 13.5439C176.941 13.7359 177.469 13.8319 177.877 13.8319H179.845V14.6599ZM181.117 16.5679H178.045C177.605 16.6559 177.261 16.8319 177.013 17.0959C176.621 17.5039 176.425 17.9519 176.425 18.4399C176.425 18.9039 176.581 19.2799 176.893 19.5679C177.205 19.8559 177.561 19.9999 177.961 19.9999C178.361 19.9999 178.713 19.8559 179.017 19.5679C179.321 19.2799 179.473 18.9039 179.473 18.4399C179.473 18.2879 179.425 18.1239 179.329 17.9479C179.241 17.7719 179.105 17.6039 178.921 17.4439L179.629 16.9399C179.845 17.0679 180.033 17.2799 180.193 17.5759C180.353 17.8639 180.433 18.1519 180.433 18.4399C180.433 19.1199 180.189 19.6879 179.701 20.1439C179.221 20.5919 178.641 20.8159 177.961 20.8159C177.281 20.8159 176.693 20.5919 176.197 20.1439C175.709 19.6879 175.465 19.1199 175.465 18.4399C175.465 17.7759 175.733 17.1999 176.269 16.7119C176.325 16.6639 176.385 16.6159 176.449 16.5679H174.781V15.7639H181.117V16.5679ZM185.017 18.1279H183.181V23.6959H182.221V12.8839H183.181V17.2519H185.017V18.1279ZM191.056 14.3719C190.688 16.9159 189.32 19.1159 186.952 20.9719L186.256 20.3839C188.256 18.7999 189.5 17.0679 189.988 15.1879H186.28V14.3719H191.056ZM194.188 23.6959H193.24V12.8839H194.188V23.6959Z" fill="black"/>
<path d="M42.8055 17.5809H42V17.5405H33V21.4324H38.6515C37.827 23.698 35.6115 25.3243 33 25.3243C29.6865 25.3243 27 22.7104 27 19.4865C27 16.2625 29.6865 13.6486 33 13.6486C34.5295 13.6486 35.921 14.2101 36.9805 15.1271L39.809 12.375C38.023 10.7555 35.634 9.75676 33 9.75676C27.4775 9.75676 23 14.1132 23 19.4865C23 24.8597 27.4775 29.2162 33 29.2162C38.5225 29.2162 43 24.8597 43 19.4865C43 18.8341 42.931 18.1973 42.8055 17.5809Z" fill="#FFC107"/>
<path d="M24.153 14.9578L27.4385 17.3022C28.3275 15.1606 30.4805 13.6486 33 13.6486C34.5295 13.6486 35.921 14.2101 36.9805 15.1271L39.809 12.375C38.023 10.7555 35.634 9.75676 33 9.75676C29.159 9.75676 25.828 11.8666 24.153 14.9578Z" fill="#FF3D00"/>
<path d="M33 29.2162C35.583 29.2162 37.93 28.2544 39.7045 26.6904L36.6095 24.1422C35.6055 24.8821 34.3575 25.3243 33 25.3243C30.399 25.3243 28.1905 23.7106 27.3585 21.4587L24.0975 23.9033C25.7525 27.0543 29.1135 29.2162 33 29.2162Z" fill="#4CAF50"/>
<path d="M42.8055 17.5809H42V17.5405H33V21.4324H38.6515C38.2555 22.5207 37.536 23.4591 36.608 24.1426C36.6085 24.1422 36.609 24.1422 36.6095 24.1417L39.7045 26.6899C39.4855 26.8835 43 24.3513 43 19.4865C43 18.8341 42.931 18.1973 42.8055 17.5809Z" fill="#1976D2"/>
</svg>
