<svg xmlns="http://www.w3.org/2000/svg" width="24" height="24"><path d="M5.072 0A5.061 5.061 0 0 0 0 5.072v13.856A5.061 5.061 0 0 0 5.072 24h13.856A5.061 5.061 0 0 0 24 18.928V5.072A5.061 5.061 0 0 0 18.928 0H5.072zm9.942 5.01c.003.95-.22 1.598-.754 2.213s-1.16.775-1.832.775c0-.785.219-1.453.613-2.018.394-.564.958-.97 1.973-.97zm-.446 3.933c.636 0 1.184.153 1.688.5.285.196.547.454.832.78-.416.369-.723.673-.899.933a2.917 2.917 0 0 0-.503 1.63c0 .628.176 1.213.548 1.734.373.499.79.848 1.205.978-.197.651-.526 1.302-.964 1.953-.68 1.02-1.358 1.54-2.038 1.54-.24 0-.613-.087-1.095-.26-.438-.175-.833-.262-1.184-.262-.307 0-.7.088-1.117.261-.438.175-.79.26-1.053.26-.81 0-1.6-.672-2.388-2.017-.767-1.346-1.16-2.671-1.16-3.93 0-1.194.306-2.17.898-2.93.592-.76 1.336-1.129 2.234-1.129.373 0 .855.09 1.403.243.547.15.92.238 1.095.238.241 0 .613-.088 1.139-.262.526-.174.987-.26 1.36-.26z"/></svg>