<svg width="282" height="38" viewBox="0 0 282 38" fill="none" xmlns="http://www.w3.org/2000/svg">
<rect x="0.5" y="0.5" width="281" height="37" rx="5.5" fill="#EBEBEB" stroke="#9F9F9F"/>
<path d="M98.1439 16.2679H97.1119C97.1119 15.9799 97.0519 15.7319 96.9319 15.5239C96.8199 15.3159 96.6759 15.1439 96.4999 15.0079C96.3319 14.8719 96.1319 14.7719 95.8999 14.7079C95.6759 14.6359 95.4479 14.5919 95.2159 14.5759C94.8319 14.5759 94.4679 14.6479 94.1239 14.7919C93.7799 14.9359 93.4759 15.1639 93.2119 15.4759C92.9479 15.7719 92.7439 16.1599 92.5999 16.6399C92.4559 17.1119 92.3839 17.5879 92.3839 18.0679C92.3839 18.3639 92.4239 18.7279 92.5039 19.1599C92.5839 19.5839 92.7359 19.9999 92.9599 20.4079C93.1759 20.7919 93.4919 21.1239 93.9079 21.4039C94.3239 21.6759 94.8559 21.8119 95.5039 21.8119C95.8559 21.8119 96.1919 21.7759 96.5119 21.7039C96.8319 21.6319 97.0279 21.5719 97.0999 21.5239V18.7639H94.9999V17.9359H98.0599V22.0039C97.6439 22.2119 97.2199 22.3639 96.7879 22.4599C96.3559 22.5559 95.8479 22.6039 95.2639 22.6039C94.5839 22.6039 93.9999 22.4719 93.5119 22.2079C93.0239 21.9439 92.6159 21.5959 92.2879 21.1639C91.9519 20.7239 91.7159 20.2359 91.5799 19.6999C91.4439 19.1639 91.3759 18.6199 91.3759 18.0679C91.3759 17.4999 91.4479 16.9599 91.5919 16.4479C91.7439 15.9359 91.9839 15.4839 92.3119 15.0919C92.6319 14.7079 93.0319 14.3959 93.5119 14.1559C93.9999 13.9079 94.5639 13.7839 95.2039 13.7839C95.6039 13.7839 95.9759 13.8439 96.3199 13.9639C96.6719 14.0839 96.9839 14.2519 97.2559 14.4679C97.5199 14.6839 97.7319 14.9439 97.8919 15.2479C98.0599 15.5519 98.1439 15.8919 98.1439 16.2679ZM102.508 22.6039C101.66 22.6039 100.96 22.3159 100.408 21.7399C99.8556 21.1639 99.5796 20.4239 99.5796 19.5199C99.5796 18.6319 99.8516 17.8999 100.396 17.3239C100.948 16.7399 101.652 16.4479 102.508 16.4479C103.364 16.4479 104.064 16.7359 104.608 17.3119C105.16 17.8879 105.436 18.6239 105.436 19.5199C105.436 20.4239 105.16 21.1639 104.608 21.7399C104.056 22.3159 103.356 22.6039 102.508 22.6039ZM102.508 21.8839C103.084 21.8839 103.552 21.6559 103.912 21.1999C104.272 20.7359 104.452 20.1759 104.452 19.5199C104.452 18.8799 104.272 18.3279 103.912 17.8639C103.552 17.3999 103.084 17.1679 102.508 17.1679C101.932 17.1679 101.464 17.3999 101.104 17.8639C100.744 18.3279 100.564 18.8799 100.564 19.5199C100.564 20.1759 100.744 20.7359 101.104 21.1999C101.464 21.6559 101.932 21.8839 102.508 21.8839ZM109.492 22.6039C108.644 22.6039 107.944 22.3159 107.392 21.7399C106.84 21.1639 106.564 20.4239 106.564 19.5199C106.564 18.6319 106.836 17.8999 107.38 17.3239C107.932 16.7399 108.636 16.4479 109.492 16.4479C110.348 16.4479 111.048 16.7359 111.592 17.3119C112.144 17.8879 112.42 18.6239 112.42 19.5199C112.42 20.4239 112.144 21.1639 111.592 21.7399C111.04 22.3159 110.34 22.6039 109.492 22.6039ZM109.492 21.8839C110.068 21.8839 110.536 21.6559 110.896 21.1999C111.256 20.7359 111.436 20.1759 111.436 19.5199C111.436 18.8799 111.256 18.3279 110.896 17.8639C110.536 17.3999 110.068 17.1679 109.492 17.1679C108.916 17.1679 108.448 17.3999 108.088 17.8639C107.728 18.3279 107.548 18.8799 107.548 19.5199C107.548 20.1759 107.728 20.7359 108.088 21.1999C108.448 21.6559 108.916 21.8839 109.492 21.8839ZM118.9 22.0039C118.868 22.8599 118.604 23.4919 118.108 23.8999C117.572 24.3319 116.832 24.5479 115.888 24.5479C115.6 24.5479 115.26 24.5199 114.868 24.4639C114.484 24.4159 114.196 24.3479 114.004 24.2599V23.3239C114.228 23.4599 114.532 23.5639 114.916 23.6359C115.308 23.7079 115.672 23.7439 116.008 23.7439C116.608 23.7439 117.072 23.6159 117.4 23.3599C117.728 23.1119 117.908 22.7839 117.94 22.3759C117.972 22.1839 117.988 22.0079 117.988 21.8479V19.4119C117.988 19.0919 117.94 18.8079 117.844 18.5599C117.756 18.3119 117.632 18.0799 117.472 17.8639C117.32 17.6639 117.132 17.5039 116.908 17.3839C116.684 17.2559 116.452 17.1919 116.212 17.1919C115.988 17.1919 115.764 17.2519 115.54 17.3719C115.324 17.4839 115.14 17.6439 114.988 17.8519C114.828 18.0759 114.704 18.3119 114.616 18.5599C114.536 18.8079 114.496 19.0919 114.496 19.4119C114.496 19.7319 114.54 20.0199 114.628 20.2759C114.716 20.5239 114.836 20.7559 114.988 20.9719C115.14 21.1879 115.324 21.3519 115.54 21.4639C115.764 21.5759 115.988 21.6319 116.212 21.6319C116.428 21.6319 116.648 21.5919 116.872 21.5119C117.096 21.4319 117.276 21.3359 117.412 21.2239V21.9439C117.276 22.0559 117.088 22.1559 116.848 22.2439C116.616 22.3239 116.36 22.3639 116.08 22.3639C115.744 22.3639 115.412 22.2959 115.084 22.1599C114.756 22.0239 114.48 21.8239 114.256 21.5599C114.032 21.3039 113.852 20.9999 113.716 20.6479C113.588 20.2879 113.524 19.8559 113.524 19.3519C113.524 18.9599 113.58 18.6039 113.692 18.2839C113.804 17.9559 113.964 17.6519 114.172 17.3719C114.388 17.0919 114.668 16.8679 115.012 16.6999C115.364 16.5319 115.74 16.4479 116.14 16.4479C116.892 16.4479 117.508 16.7559 117.988 17.3719V16.5919H118.9V22.0039ZM121.748 22.4719H120.776V13.9399H121.748V22.4719ZM124.295 19.0879H127.583C127.583 18.5359 127.487 18.0959 127.295 17.7679C127.191 17.5919 127.039 17.4519 126.839 17.3479C126.639 17.2359 126.399 17.1799 126.119 17.1799C125.591 17.1799 125.155 17.3759 124.811 17.7679C124.515 18.0959 124.343 18.5359 124.295 19.0879ZM124.307 19.8199L124.331 19.9399C124.355 20.1239 124.403 20.3079 124.475 20.4919C124.563 20.7079 124.683 20.9159 124.835 21.1159C124.995 21.3079 125.219 21.4799 125.507 21.6319C125.611 21.6879 125.767 21.7399 125.975 21.7879C126.183 21.8359 126.419 21.8599 126.683 21.8599C126.891 21.8599 127.151 21.8359 127.463 21.7879C127.783 21.7319 128.079 21.6199 128.351 21.4519V22.1839C127.999 22.3679 127.627 22.4919 127.235 22.5559C126.843 22.6199 126.443 22.6319 126.035 22.5919C125.675 22.5599 125.331 22.4719 125.003 22.3279C124.675 22.1839 124.403 22.0039 124.187 21.7879C123.923 21.5239 123.707 21.1959 123.539 20.8039C123.371 20.4039 123.287 19.9359 123.287 19.3999C123.287 18.9679 123.347 18.5759 123.467 18.2239C123.587 17.8639 123.775 17.5519 124.031 17.2879C124.263 17.0319 124.555 16.8279 124.907 16.6759C125.259 16.5239 125.663 16.4479 126.119 16.4479C126.511 16.4479 126.867 16.5159 127.187 16.6519C127.515 16.7799 127.787 16.9719 128.003 17.2279C128.363 17.6599 128.543 18.3119 128.543 19.1839V19.8199H124.307ZM138.253 14.3479C138.181 14.9799 138.049 15.5959 137.857 16.1959H139.705V13.1239H140.605V22.9759H139.705V19.5799H137.749V18.7759H139.705V16.9999H137.713V16.6039C137.129 18.1719 136.125 19.6199 134.701 20.9479L133.993 20.3479C135.673 18.8359 136.741 17.1079 137.197 15.1639H134.029V14.3479H138.253ZM142.885 23.6959H141.949V12.8839H142.885V23.6959ZM148.597 16.3159L150.829 18.2959L150.181 18.9439L148.045 16.9759C147.333 17.7599 146.401 18.5039 145.249 19.2079L144.625 18.5719C146.657 17.3319 147.973 15.9799 148.573 14.5159H145.237V13.7119H149.701C149.565 14.6159 149.197 15.4839 148.597 16.3159ZM153.241 19.5679H152.293V16.4959H150.049V15.6799H152.293V12.8839H153.241V19.5679ZM153.133 21.9799C153.133 22.6039 152.889 23.1399 152.401 23.5879C151.913 24.0439 151.257 24.2719 150.433 24.2719C149.625 24.2719 148.977 24.0439 148.489 23.5879C148.001 23.1399 147.757 22.6039 147.757 21.9799C147.757 21.3559 148.001 20.8199 148.489 20.3719C148.977 19.9159 149.625 19.6879 150.433 19.6879C151.249 19.6879 151.901 19.9159 152.389 20.3719C152.885 20.8199 153.133 21.3559 153.133 21.9799ZM152.173 21.9799C152.173 21.5879 152.021 21.2439 151.717 20.9479C151.421 20.6519 150.993 20.5039 150.433 20.5039C149.881 20.5039 149.457 20.6519 149.161 20.9479C148.865 21.2439 148.717 21.5879 148.717 21.9799C148.717 22.3719 148.865 22.7159 149.161 23.0119C149.457 23.3079 149.881 23.4559 150.433 23.4559C150.993 23.4559 151.421 23.3079 151.717 23.0119C152.021 22.7159 152.173 22.3719 152.173 21.9799ZM161.657 13.7719C162.417 13.7719 163.053 14.0159 163.565 14.5039C164.077 14.9919 164.333 15.5879 164.333 16.2919C164.333 16.9959 164.077 17.5919 163.565 18.0799C163.053 18.5679 162.417 18.8119 161.657 18.8119C160.897 18.8119 160.261 18.5679 159.749 18.0799C159.237 17.5919 158.981 16.9959 158.981 16.2919C158.981 15.5879 159.237 14.9919 159.749 14.5039C160.261 14.0159 160.897 13.7719 161.657 13.7719ZM161.657 14.5759C161.153 14.5759 160.741 14.7439 160.421 15.0799C160.101 15.4159 159.941 15.8199 159.941 16.2919C159.941 16.7639 160.101 17.1679 160.421 17.5039C160.741 17.8399 161.153 18.0079 161.657 18.0079C162.161 18.0079 162.573 17.8399 162.893 17.5039C163.213 17.1679 163.373 16.7639 163.373 16.2919C163.373 15.8199 163.213 15.4159 162.893 15.0799C162.573 14.7439 162.161 14.5759 161.657 14.5759ZM167.573 20.8999H166.637V18.1159H164.681V17.2999H166.637V15.3919H164.681V14.5759H166.637V12.8839H167.573V20.8999ZM167.645 23.9959H161.825V20.3479H162.773V23.1799H167.645V23.9959ZM177.008 17.1319H174.752V18.4759H179.312V19.3039H169.136V18.4759H173.768V17.1319H171.404V13.3399H176.996V14.1559H172.388V16.3159H177.008V17.1319ZM171.464 22.1119C171.464 21.4799 171.724 20.9639 172.244 20.5639C172.764 20.1559 173.424 19.9519 174.224 19.9519C175.032 19.9519 175.696 20.1559 176.216 20.5639C176.744 20.9639 177.008 21.4799 177.008 22.1119C177.008 22.7439 176.744 23.2599 176.216 23.6599C175.696 24.0679 175.032 24.2719 174.224 24.2719C173.424 24.2719 172.764 24.0679 172.244 23.6599C171.724 23.2599 171.464 22.7439 171.464 22.1119ZM172.436 22.1119C172.436 22.5119 172.6 22.8319 172.928 23.0719C173.256 23.3199 173.688 23.4439 174.224 23.4439C174.768 23.4439 175.204 23.3199 175.532 23.0719C175.868 22.8319 176.036 22.5119 176.036 22.1119C176.036 21.7119 175.868 21.3919 175.532 21.1519C175.204 20.9039 174.768 20.7799 174.224 20.7799C173.688 20.7799 173.256 20.9039 172.928 21.1519C172.6 21.3919 172.436 21.7119 172.436 22.1119ZM185.905 17.2759H184.057V18.6079C184.377 18.6079 184.749 18.5999 185.173 18.5839C185.941 18.5599 186.645 18.4839 187.285 18.3559V19.1719C186.677 19.2999 185.997 19.3759 185.245 19.3999C184.493 19.4239 183.853 19.4359 183.325 19.4359H180.061V18.6199H183.109V17.2759H181.033V13.5799H185.905V14.3959H181.993V16.4599H185.905V17.2759ZM188.917 12.8839V19.9279H187.969V12.8839H188.917ZM188.785 24.0559H183.097V20.4439H188.785V24.0559ZM187.849 23.2519V21.2479H184.033V23.2519H187.849Z" fill="black"/>
<path d="M42.8055 17.5809H42V17.5405H33V21.4324H38.6515C37.827 23.698 35.6115 25.3243 33 25.3243C29.6865 25.3243 27 22.7104 27 19.4865C27 16.2625 29.6865 13.6487 33 13.6487C34.5295 13.6487 35.921 14.2101 36.9805 15.1271L39.809 12.375C38.023 10.7555 35.634 9.75676 33 9.75676C27.4775 9.75676 23 14.1132 23 19.4865C23 24.8597 27.4775 29.2162 33 29.2162C38.5225 29.2162 43 24.8597 43 19.4865C43 18.8341 42.931 18.1973 42.8055 17.5809Z" fill="#FFC107"/>
<path d="M24.153 14.9578L27.4385 17.3022C28.3275 15.1607 30.4805 13.6487 33 13.6487C34.5295 13.6487 35.921 14.2101 36.9805 15.1271L39.809 12.375C38.023 10.7555 35.634 9.75676 33 9.75676C29.159 9.75676 25.828 11.8667 24.153 14.9578Z" fill="#FF3D00"/>
<path d="M33 29.2162C35.583 29.2162 37.93 28.2544 39.7045 26.6904L36.6095 24.1422C35.6055 24.8821 34.3575 25.3243 33 25.3243C30.399 25.3243 28.1905 23.7106 27.3585 21.4587L24.0975 23.9033C25.7525 27.0543 29.1135 29.2162 33 29.2162Z" fill="#4CAF50"/>
<path d="M42.8055 17.5809H42V17.5405H33V21.4324H38.6515C38.2555 22.5207 37.536 23.4591 36.608 24.1427C36.6085 24.1422 36.609 24.1422 36.6095 24.1417L39.7045 26.6899C39.4855 26.8835 43 24.3514 43 19.4865C43 18.8341 42.931 18.1973 42.8055 17.5809Z" fill="#1976D2"/>
<path d="M255.356 22.7926L250.615 18.0382L249 19.6458L255.356 26.0193L269 12.3374L267.397 10.7297L255.356 22.7926Z" fill="#9F9F9F"/>
</svg>
