<svg width="20" height="20" viewBox="0 0 20 20" fill="none" xmlns="http://www.w3.org/2000/svg">
<path d="M19.8055 7.82416H19V7.78378H10V11.6757H15.6515C14.827 13.9412 12.6115 15.5676 10 15.5676C6.6865 15.5676 4 12.9537 4 9.72973C4 6.50578 6.6865 3.89189 10 3.89189C11.5295 3.89189 12.921 4.4533 13.9805 5.37032L16.809 2.61827C15.023 0.998757 12.634 0 10 0C4.4775 0 0 4.35649 0 9.72973C0 15.103 4.4775 19.4595 10 19.4595C15.5225 19.4595 20 15.103 20 9.72973C20 9.07735 19.931 8.44054 19.8055 7.82416Z" fill="#FFC107"/>
<path d="M1.15298 5.20103L4.43848 7.54541C5.32748 5.40389 7.48048 3.89189 9.99998 3.89189C11.5295 3.89189 12.921 4.4533 13.9805 5.37032L16.809 2.61827C15.023 0.998757 12.634 0 9.99998 0C6.15898 0 2.82798 2.10989 1.15298 5.20103Z" fill="#FF3D00"/>
<path d="M10 19.4595C12.583 19.4595 14.93 18.4977 16.7045 16.9336L13.6095 14.3854C12.6055 15.1253 11.3575 15.5676 10 15.5676C7.399 15.5676 5.1905 13.9539 4.3585 11.7019L1.0975 14.1465C2.7525 17.2975 6.1135 19.4595 10 19.4595Z" fill="#4CAF50"/>
<path d="M19.8055 7.82416H19V7.78378H10V11.6757H15.6515C15.2555 12.7639 14.536 13.7024 13.608 14.3859C13.6085 14.3854 13.609 14.3854 13.6095 14.3849L16.7045 16.9331C16.4855 17.1268 20 14.5946 20 9.72973C20 9.07735 19.931 8.44054 19.8055 7.82416Z" fill="#1976D2"/>
</svg>
