<svg width="282" height="38" viewBox="0 0 282 38" fill="none" xmlns="http://www.w3.org/2000/svg">
<rect x="0.5" y="0.5" width="281" height="37" rx="5.5" fill="white" stroke="#9F9F9F"/>
<path d="M90.709 22.4719H89.677L92.713 13.9399H93.793L96.841 22.4719H95.809L94.909 19.8079H91.621L90.709 22.4719ZM94.621 18.9799L93.277 14.9959L91.909 18.9799H94.621ZM99.5696 22.2079V21.4159C100.002 21.6879 100.386 21.8239 100.722 21.8239C100.97 21.8239 101.202 21.7679 101.418 21.6559C101.642 21.5359 101.834 21.3719 101.994 21.1639C102.146 20.9639 102.266 20.7199 102.354 20.4319C102.442 20.1359 102.486 19.8279 102.486 19.5079C102.486 19.1879 102.438 18.8879 102.342 18.6079C102.254 18.3279 102.13 18.0799 101.97 17.8639C101.818 17.6559 101.634 17.4919 101.418 17.3719C101.202 17.2519 100.97 17.1919 100.722 17.1919C100.498 17.1919 100.278 17.2559 100.062 17.3839C99.8456 17.5119 99.6616 17.6759 99.5096 17.8759C99.3576 18.0919 99.2336 18.3399 99.1376 18.6199C99.0496 18.8919 99.0056 19.1879 99.0056 19.5079V24.5599H98.0816V16.5919H99.0056V17.3839C99.5096 16.7599 100.114 16.4479 100.818 16.4479C101.226 16.4479 101.602 16.5359 101.946 16.7119C102.29 16.8799 102.57 17.1039 102.786 17.3839C102.994 17.6639 103.154 17.9799 103.266 18.3319C103.386 18.6839 103.446 19.0559 103.446 19.4479C103.446 19.9519 103.374 20.3999 103.23 20.7919C103.094 21.1759 102.918 21.4959 102.702 21.7519C102.486 22.0159 102.214 22.2159 101.886 22.3519C101.558 22.4879 101.222 22.5559 100.878 22.5559C100.406 22.5559 99.9696 22.4399 99.5696 22.2079ZM106.296 22.2079V21.4159C106.728 21.6879 107.112 21.8239 107.448 21.8239C107.696 21.8239 107.928 21.7679 108.144 21.6559C108.368 21.5359 108.56 21.3719 108.72 21.1639C108.872 20.9639 108.992 20.7199 109.08 20.4319C109.168 20.1359 109.212 19.8279 109.212 19.5079C109.212 19.1879 109.164 18.8879 109.068 18.6079C108.98 18.3279 108.856 18.0799 108.696 17.8639C108.544 17.6559 108.36 17.4919 108.144 17.3719C107.928 17.2519 107.696 17.1919 107.448 17.1919C107.224 17.1919 107.004 17.2559 106.788 17.3839C106.572 17.5119 106.388 17.6759 106.236 17.8759C106.084 18.0919 105.96 18.3399 105.864 18.6199C105.776 18.8919 105.732 19.1879 105.732 19.5079V24.5599H104.808V16.5919H105.732V17.3839C106.236 16.7599 106.84 16.4479 107.544 16.4479C107.952 16.4479 108.328 16.5359 108.672 16.7119C109.016 16.8799 109.296 17.1039 109.512 17.3839C109.72 17.6639 109.88 17.9799 109.992 18.3319C110.112 18.6839 110.172 19.0559 110.172 19.4479C110.172 19.9519 110.1 20.3999 109.956 20.7919C109.82 21.1759 109.644 21.4959 109.428 21.7519C109.212 22.0159 108.94 22.2159 108.612 22.3519C108.284 22.4879 107.948 22.5559 107.604 22.5559C107.132 22.5559 106.696 22.4399 106.296 22.2079ZM112.672 22.4719H111.7V13.9399H112.672V22.4719ZM115.218 19.0879H118.506C118.506 18.5359 118.41 18.0959 118.218 17.7679C118.114 17.5919 117.962 17.4519 117.762 17.3479C117.562 17.2359 117.322 17.1799 117.042 17.1799C116.514 17.1799 116.078 17.3759 115.734 17.7679C115.438 18.0959 115.266 18.5359 115.218 19.0879ZM115.23 19.8199L115.254 19.9399C115.278 20.1239 115.326 20.3079 115.398 20.4919C115.486 20.7079 115.606 20.9159 115.758 21.1159C115.918 21.3079 116.142 21.4799 116.43 21.6319C116.534 21.6879 116.69 21.7399 116.898 21.7879C117.106 21.8359 117.342 21.8599 117.606 21.8599C117.814 21.8599 118.074 21.8359 118.386 21.7879C118.706 21.7319 119.002 21.6199 119.274 21.4519V22.1839C118.922 22.3679 118.55 22.4919 118.158 22.5559C117.766 22.6199 117.366 22.6319 116.958 22.5919C116.598 22.5599 116.254 22.4719 115.926 22.3279C115.598 22.1839 115.326 22.0039 115.11 21.7879C114.846 21.5239 114.63 21.1959 114.462 20.8039C114.294 20.4039 114.21 19.9359 114.21 19.3999C114.21 18.9679 114.27 18.5759 114.39 18.2239C114.51 17.8639 114.698 17.5519 114.954 17.2879C115.186 17.0319 115.478 16.8279 115.83 16.6759C116.182 16.5239 116.586 16.4479 117.042 16.4479C117.434 16.4479 117.79 16.5159 118.11 16.6519C118.438 16.7799 118.71 16.9719 118.926 17.2279C119.286 17.6599 119.466 18.3119 119.466 19.1839V19.8199H115.23ZM129.176 14.3479C129.104 14.9799 128.972 15.5959 128.78 16.1959H130.628V13.1239H131.528V22.9759H130.628V19.5799H128.672V18.7759H130.628V16.9999H128.636V16.6039C128.052 18.1719 127.048 19.6199 125.624 20.9479L124.916 20.3479C126.596 18.8359 127.664 17.1079 128.12 15.1639H124.952V14.3479H129.176ZM133.808 23.6959H132.872V12.8839H133.808V23.6959ZM139.521 16.3159L141.753 18.2959L141.105 18.9439L138.969 16.9759C138.257 17.7599 137.325 18.5039 136.173 19.2079L135.549 18.5719C137.581 17.3319 138.897 15.9799 139.497 14.5159H136.161V13.7119H140.625C140.489 14.6159 140.121 15.4839 139.521 16.3159ZM144.165 19.5679H143.217V16.4959H140.973V15.6799H143.217V12.8839H144.165V19.5679ZM144.057 21.9799C144.057 22.6039 143.813 23.1399 143.325 23.5879C142.837 24.0439 142.181 24.2719 141.357 24.2719C140.549 24.2719 139.901 24.0439 139.413 23.5879C138.925 23.1399 138.681 22.6039 138.681 21.9799C138.681 21.3559 138.925 20.8199 139.413 20.3719C139.901 19.9159 140.549 19.6879 141.357 19.6879C142.173 19.6879 142.825 19.9159 143.313 20.3719C143.809 20.8199 144.057 21.3559 144.057 21.9799ZM143.097 21.9799C143.097 21.5879 142.945 21.2439 142.641 20.9479C142.345 20.6519 141.917 20.5039 141.357 20.5039C140.805 20.5039 140.381 20.6519 140.085 20.9479C139.789 21.2439 139.641 21.5879 139.641 21.9799C139.641 22.3719 139.789 22.7159 140.085 23.0119C140.381 23.3079 140.805 23.4559 141.357 23.4559C141.917 23.4559 142.345 23.3079 142.641 23.0119C142.945 22.7159 143.097 22.3719 143.097 21.9799ZM152.581 13.7719C153.341 13.7719 153.977 14.0159 154.489 14.5039C155.001 14.9919 155.257 15.5879 155.257 16.2919C155.257 16.9959 155.001 17.5919 154.489 18.0799C153.977 18.5679 153.341 18.8119 152.581 18.8119C151.821 18.8119 151.185 18.5679 150.673 18.0799C150.161 17.5919 149.905 16.9959 149.905 16.2919C149.905 15.5879 150.161 14.9919 150.673 14.5039C151.185 14.0159 151.821 13.7719 152.581 13.7719ZM152.581 14.5759C152.077 14.5759 151.665 14.7439 151.345 15.0799C151.025 15.4159 150.865 15.8199 150.865 16.2919C150.865 16.7639 151.025 17.1679 151.345 17.5039C151.665 17.8399 152.077 18.0079 152.581 18.0079C153.085 18.0079 153.497 17.8399 153.817 17.5039C154.137 17.1679 154.297 16.7639 154.297 16.2919C154.297 15.8199 154.137 15.4159 153.817 15.0799C153.497 14.7439 153.085 14.5759 152.581 14.5759ZM158.497 20.8999H157.561V18.1159H155.605V17.2999H157.561V15.3919H155.605V14.5759H157.561V12.8839H158.497V20.8999ZM158.569 23.9959H152.749V20.3479H153.697V23.1799H158.569V23.9959ZM167.932 17.1319H165.676V18.4759H170.236V19.3039H160.06V18.4759H164.692V17.1319H162.328V13.3399H167.92V14.1559H163.312V16.3159H167.932V17.1319ZM162.388 22.1119C162.388 21.4799 162.648 20.9639 163.168 20.5639C163.688 20.1559 164.348 19.9519 165.148 19.9519C165.956 19.9519 166.62 20.1559 167.14 20.5639C167.668 20.9639 167.932 21.4799 167.932 22.1119C167.932 22.7439 167.668 23.2599 167.14 23.6599C166.62 24.0679 165.956 24.2719 165.148 24.2719C164.348 24.2719 163.688 24.0679 163.168 23.6599C162.648 23.2599 162.388 22.7439 162.388 22.1119ZM163.36 22.1119C163.36 22.5119 163.524 22.8319 163.852 23.0719C164.18 23.3199 164.612 23.4439 165.148 23.4439C165.692 23.4439 166.128 23.3199 166.456 23.0719C166.792 22.8319 166.96 22.5119 166.96 22.1119C166.96 21.7119 166.792 21.3919 166.456 21.1519C166.128 20.9039 165.692 20.7799 165.148 20.7799C164.612 20.7799 164.18 20.9039 163.852 21.1519C163.524 21.3919 163.36 21.7119 163.36 22.1119ZM176.037 14.6599H173.937C173.281 14.6599 172.697 14.5199 172.185 14.2399L172.485 13.5439C173.133 13.7359 173.661 13.8319 174.069 13.8319H176.037V14.6599ZM177.309 16.5679H174.237C173.797 16.6559 173.453 16.8319 173.205 17.0959C172.813 17.5039 172.617 17.9519 172.617 18.4399C172.617 18.9039 172.773 19.2799 173.085 19.5679C173.397 19.8559 173.753 19.9999 174.153 19.9999C174.553 19.9999 174.905 19.8559 175.209 19.5679C175.513 19.2799 175.665 18.9039 175.665 18.4399C175.665 18.2879 175.617 18.1239 175.521 17.9479C175.433 17.7719 175.297 17.6039 175.113 17.4439L175.821 16.9399C176.037 17.0679 176.225 17.2799 176.385 17.5759C176.545 17.8639 176.625 18.1519 176.625 18.4399C176.625 19.1199 176.381 19.6879 175.893 20.1439C175.413 20.5919 174.833 20.8159 174.153 20.8159C173.473 20.8159 172.885 20.5919 172.389 20.1439C171.901 19.6879 171.657 19.1199 171.657 18.4399C171.657 17.7759 171.925 17.1999 172.461 16.7119C172.517 16.6639 172.577 16.6159 172.641 16.5679H170.973V15.7639H177.309V16.5679ZM181.209 18.1279H179.373V23.6959H178.413V12.8839H179.373V17.2519H181.209V18.1279ZM187.248 14.3719C186.88 16.9159 185.512 19.1159 183.144 20.9719L182.448 20.3839C184.448 18.7999 185.692 17.0679 186.18 15.1879H182.472V14.3719H187.248ZM190.38 23.6959H189.432V12.8839H190.38V23.6959Z" fill="black"/>
<path d="M38.0517 19.0671C38.0427 17.4727 38.7839 16.2692 40.2842 15.383C39.4448 14.2143 38.1767 13.5714 36.5023 13.4454C34.9172 13.3237 33.1847 14.3447 32.5507 14.3447C31.8809 14.3447 30.3449 13.4888 29.1393 13.4888C26.6478 13.5279 24 15.4221 24 19.2756C24 20.4138 24.2143 21.5897 24.643 22.8033C25.2145 24.3977 27.2774 28.3076 29.4296 28.2425C30.5548 28.2164 31.3496 27.4648 32.8141 27.4648C34.234 27.4648 34.9707 28.2425 36.2254 28.2425C38.3955 28.2121 40.2619 24.6583 40.8066 23.0596C37.8954 21.7258 38.0517 19.1496 38.0517 19.0671ZM35.5244 11.9335C36.7434 10.5259 36.6318 9.24432 36.596 8.78381C35.52 8.84464 34.2742 9.4963 33.5642 10.3C32.7828 11.1602 32.3229 12.2246 32.4212 13.4237C33.5866 13.5105 34.6493 12.9284 35.5244 11.9335Z" fill="black"/>
</svg>
