<svg width="282" height="38" viewBox="0 0 282 38" fill="none" xmlns="http://www.w3.org/2000/svg">
<rect x="0.5" y="0.5" width="281" height="37" rx="5.5" fill="#EBEBEB" stroke="#9F9F9F"/>
<path d="M95.9765 22.4719H94.9445L97.9805 13.9399H99.0605L102.109 22.4719H101.077L100.177 19.8079H96.8885L95.9765 22.4719ZM99.8885 18.9799L98.5445 14.9959L97.1765 18.9799H99.8885ZM104.837 22.2079V21.4159C105.269 21.6879 105.653 21.8239 105.989 21.8239C106.237 21.8239 106.469 21.7679 106.685 21.6559C106.909 21.5359 107.101 21.3719 107.261 21.1639C107.413 20.9639 107.533 20.7199 107.621 20.4319C107.709 20.1359 107.753 19.8279 107.753 19.5079C107.753 19.1879 107.705 18.8879 107.609 18.6079C107.521 18.3279 107.397 18.0799 107.237 17.8639C107.085 17.6559 106.901 17.4919 106.685 17.3719C106.469 17.2519 106.237 17.1919 105.989 17.1919C105.765 17.1919 105.545 17.2559 105.329 17.3839C105.113 17.5119 104.929 17.6759 104.777 17.8759C104.625 18.0919 104.501 18.3399 104.405 18.6199C104.317 18.8919 104.273 19.1879 104.273 19.5079V24.5599H103.349V16.5919H104.273V17.3839C104.777 16.7599 105.381 16.4479 106.085 16.4479C106.493 16.4479 106.869 16.5359 107.213 16.7119C107.557 16.8799 107.837 17.1039 108.053 17.3839C108.261 17.6639 108.421 17.9799 108.533 18.3319C108.653 18.6839 108.713 19.0559 108.713 19.4479C108.713 19.9519 108.641 20.3999 108.497 20.7919C108.361 21.1759 108.185 21.4959 107.969 21.7519C107.753 22.0159 107.481 22.2159 107.153 22.3519C106.825 22.4879 106.489 22.5559 106.145 22.5559C105.673 22.5559 105.237 22.4399 104.837 22.2079ZM111.564 22.2079V21.4159C111.996 21.6879 112.38 21.8239 112.716 21.8239C112.964 21.8239 113.196 21.7679 113.412 21.6559C113.636 21.5359 113.828 21.3719 113.988 21.1639C114.14 20.9639 114.26 20.7199 114.348 20.4319C114.436 20.1359 114.48 19.8279 114.48 19.5079C114.48 19.1879 114.432 18.8879 114.336 18.6079C114.248 18.3279 114.124 18.0799 113.964 17.8639C113.812 17.6559 113.628 17.4919 113.412 17.3719C113.196 17.2519 112.964 17.1919 112.716 17.1919C112.492 17.1919 112.272 17.2559 112.056 17.3839C111.84 17.5119 111.656 17.6759 111.504 17.8759C111.352 18.0919 111.228 18.3399 111.132 18.6199C111.044 18.8919 111 19.1879 111 19.5079V24.5599H110.076V16.5919H111V17.3839C111.504 16.7599 112.108 16.4479 112.812 16.4479C113.22 16.4479 113.596 16.5359 113.94 16.7119C114.284 16.8799 114.564 17.1039 114.78 17.3839C114.988 17.6639 115.148 17.9799 115.26 18.3319C115.38 18.6839 115.44 19.0559 115.44 19.4479C115.44 19.9519 115.368 20.3999 115.224 20.7919C115.088 21.1759 114.912 21.4959 114.696 21.7519C114.48 22.0159 114.208 22.2159 113.88 22.3519C113.552 22.4879 113.216 22.5559 112.872 22.5559C112.4 22.5559 111.964 22.4399 111.564 22.2079ZM117.94 22.4719H116.968V13.9399H117.94V22.4719ZM120.486 19.0879H123.774C123.774 18.5359 123.678 18.0959 123.486 17.7679C123.382 17.5919 123.23 17.4519 123.03 17.3479C122.83 17.2359 122.59 17.1799 122.31 17.1799C121.782 17.1799 121.346 17.3759 121.002 17.7679C120.706 18.0959 120.534 18.5359 120.486 19.0879ZM120.498 19.8199L120.522 19.9399C120.546 20.1239 120.594 20.3079 120.666 20.4919C120.754 20.7079 120.874 20.9159 121.026 21.1159C121.186 21.3079 121.41 21.4799 121.698 21.6319C121.802 21.6879 121.958 21.7399 122.166 21.7879C122.374 21.8359 122.61 21.8599 122.874 21.8599C123.082 21.8599 123.342 21.8359 123.654 21.7879C123.974 21.7319 124.27 21.6199 124.542 21.4519V22.1839C124.19 22.3679 123.818 22.4919 123.426 22.5559C123.034 22.6199 122.634 22.6319 122.226 22.5919C121.866 22.5599 121.522 22.4719 121.194 22.3279C120.866 22.1839 120.594 22.0039 120.378 21.7879C120.114 21.5239 119.898 21.1959 119.73 20.8039C119.562 20.4039 119.478 19.9359 119.478 19.3999C119.478 18.9679 119.538 18.5759 119.658 18.2239C119.778 17.8639 119.966 17.5519 120.222 17.2879C120.454 17.0319 120.746 16.8279 121.098 16.6759C121.45 16.5239 121.854 16.4479 122.31 16.4479C122.702 16.4479 123.058 16.5159 123.378 16.6519C123.706 16.7799 123.978 16.9719 124.194 17.2279C124.554 17.6599 124.734 18.3119 124.734 19.1839V19.8199H120.498ZM134.444 14.3479C134.372 14.9799 134.24 15.5959 134.048 16.1959H135.896V13.1239H136.796V22.9759H135.896V19.5799H133.94V18.7759H135.896V16.9999H133.904V16.6039C133.32 18.1719 132.316 19.6199 130.892 20.9479L130.184 20.3479C131.864 18.8359 132.932 17.1079 133.388 15.1639H130.22V14.3479H134.444ZM139.076 23.6959H138.14V12.8839H139.076V23.6959ZM144.789 16.3159L147.021 18.2959L146.372 18.9439L144.237 16.9759C143.525 17.7599 142.593 18.5039 141.441 19.2079L140.817 18.5719C142.849 17.3319 144.165 15.9799 144.765 14.5159H141.429V13.7119H145.893C145.757 14.6159 145.389 15.4839 144.789 16.3159ZM149.433 19.5679H148.485V16.4959H146.241V15.6799H148.485V12.8839H149.433V19.5679ZM149.325 21.9799C149.325 22.6039 149.081 23.1399 148.593 23.5879C148.105 24.0439 147.449 24.2719 146.625 24.2719C145.817 24.2719 145.169 24.0439 144.681 23.5879C144.193 23.1399 143.949 22.6039 143.949 21.9799C143.949 21.3559 144.193 20.8199 144.681 20.3719C145.169 19.9159 145.817 19.6879 146.625 19.6879C147.441 19.6879 148.093 19.9159 148.581 20.3719C149.077 20.8199 149.325 21.3559 149.325 21.9799ZM148.365 21.9799C148.365 21.5879 148.213 21.2439 147.909 20.9479C147.613 20.6519 147.185 20.5039 146.625 20.5039C146.073 20.5039 145.649 20.6519 145.353 20.9479C145.057 21.2439 144.909 21.5879 144.909 21.9799C144.909 22.3719 145.057 22.7159 145.353 23.0119C145.649 23.3079 146.073 23.4559 146.625 23.4559C147.185 23.4559 147.613 23.3079 147.909 23.0119C148.213 22.7159 148.365 22.3719 148.365 21.9799ZM157.849 13.7719C158.609 13.7719 159.245 14.0159 159.757 14.5039C160.269 14.9919 160.525 15.5879 160.525 16.2919C160.525 16.9959 160.269 17.5919 159.757 18.0799C159.245 18.5679 158.609 18.8119 157.849 18.8119C157.089 18.8119 156.453 18.5679 155.941 18.0799C155.429 17.5919 155.173 16.9959 155.173 16.2919C155.173 15.5879 155.429 14.9919 155.941 14.5039C156.453 14.0159 157.089 13.7719 157.849 13.7719ZM157.849 14.5759C157.345 14.5759 156.933 14.7439 156.613 15.0799C156.293 15.4159 156.133 15.8199 156.133 16.2919C156.133 16.7639 156.293 17.1679 156.613 17.5039C156.933 17.8399 157.345 18.0079 157.849 18.0079C158.353 18.0079 158.765 17.8399 159.085 17.5039C159.405 17.1679 159.565 16.7639 159.565 16.2919C159.565 15.8199 159.405 15.4159 159.085 15.0799C158.765 14.7439 158.353 14.5759 157.849 14.5759ZM163.765 20.8999H162.829V18.1159H160.873V17.2999H162.829V15.3919H160.873V14.5759H162.829V12.8839H163.765V20.8999ZM163.837 23.9959H158.017V20.3479H158.965V23.1799H163.837V23.9959ZM173.2 17.1319H170.944V18.4759H175.504V19.3039H165.328V18.4759H169.96V17.1319H167.596V13.3399H173.188V14.1559H168.58V16.3159H173.2V17.1319ZM167.656 22.1119C167.656 21.4799 167.916 20.9639 168.436 20.5639C168.956 20.1559 169.616 19.9519 170.416 19.9519C171.224 19.9519 171.888 20.1559 172.408 20.5639C172.936 20.9639 173.2 21.4799 173.2 22.1119C173.2 22.7439 172.936 23.2599 172.408 23.6599C171.888 24.0679 171.224 24.2719 170.416 24.2719C169.616 24.2719 168.956 24.0679 168.436 23.6599C167.916 23.2599 167.656 22.7439 167.656 22.1119ZM168.628 22.1119C168.628 22.5119 168.792 22.8319 169.12 23.0719C169.448 23.3199 169.88 23.4439 170.416 23.4439C170.96 23.4439 171.396 23.3199 171.724 23.0719C172.06 22.8319 172.228 22.5119 172.228 22.1119C172.228 21.7119 172.06 21.3919 171.724 21.1519C171.396 20.9039 170.96 20.7799 170.416 20.7799C169.88 20.7799 169.448 20.9039 169.12 21.1519C168.792 21.3919 168.628 21.7119 168.628 22.1119ZM182.096 17.2759H180.248V18.6079C180.568 18.6079 180.94 18.5999 181.364 18.5839C182.132 18.5599 182.836 18.4839 183.476 18.3559V19.1719C182.868 19.2999 182.188 19.3759 181.436 19.3999C180.684 19.4239 180.044 19.4359 179.516 19.4359H176.252V18.6199H179.3V17.2759H177.224V13.5799H182.096V14.3959H178.184V16.4599H182.096V17.2759ZM185.108 12.8839V19.9279H184.16V12.8839H185.108ZM184.976 24.0559H179.288V20.4439H184.976V24.0559ZM184.04 23.2519V21.2479H180.224V23.2519H184.04Z" fill="black"/>
<path d="M38.0517 19.0671C38.0427 17.4727 38.7839 16.2692 40.2842 15.383C39.4448 14.2143 38.1767 13.5714 36.5023 13.4454C34.9172 13.3237 33.1847 14.3447 32.5507 14.3447C31.8809 14.3447 30.3449 13.4888 29.1393 13.4888C26.6478 13.5279 24 15.4221 24 19.2756C24 20.4138 24.2143 21.5897 24.643 22.8033C25.2145 24.3977 27.2774 28.3076 29.4296 28.2425C30.5548 28.2164 31.3496 27.4648 32.8141 27.4648C34.234 27.4648 34.9707 28.2425 36.2254 28.2425C38.3955 28.2121 40.2619 24.6583 40.8066 23.0596C37.8954 21.7258 38.0517 19.1496 38.0517 19.0671ZM35.5244 11.9335C36.7434 10.5259 36.6318 9.24432 36.596 8.78381C35.52 8.84464 34.2742 9.4963 33.5642 10.3C32.7828 11.1602 32.3229 12.2246 32.4212 13.4237C33.5866 13.5105 34.6493 12.9284 35.5244 11.9335Z" fill="black"/>
<path d="M255.356 24.7386L250.615 19.9841L249 21.5917L255.356 27.9652L269 14.2833L267.397 12.6757L255.356 24.7386Z" fill="#9F9F9F"/>
</svg>
