<svg width="18" height="20" viewBox="0 0 18 20" fill="none" xmlns="http://www.w3.org/2000/svg">
<path d="M14.6483 10.5535C14.6394 8.95911 15.3806 7.75571 16.8809 6.86944C16.0415 5.7008 14.7734 5.05782 13.099 4.93183C11.5138 4.81019 9.78139 5.83113 9.14734 5.83113C8.47758 5.83113 6.94158 4.97528 5.73601 4.97528C3.24448 5.01438 0.59668 6.90854 0.59668 10.762C0.59668 11.9003 0.811004 13.0762 1.23965 14.2897C1.81119 15.8841 3.87406 19.7941 6.02624 19.7289C7.15144 19.7029 7.94623 18.9513 9.41078 18.9513C10.8307 18.9513 11.5674 19.7289 12.8221 19.7289C14.9922 19.6985 16.8586 16.1448 17.4033 14.546C14.4921 13.2123 14.6483 10.6361 14.6483 10.5535ZM12.1211 3.41998C13.3401 2.01238 13.2284 0.73078 13.1927 0.270271C12.1166 0.331093 10.8709 0.982756 10.1609 1.78647C9.37953 2.64667 8.91962 3.71105 9.01785 4.91011C10.1832 4.997 11.2459 4.41485 12.1211 3.41998Z" fill="black"/>
</svg>
