<svg width="280" height="36" viewBox="0 0 280 36" fill="none" xmlns="http://www.w3.org/2000/svg">
<path d="M126.707 17.904H124.271V19.644H128.843V20.472H118.667V19.644H123.287V17.904H120.863V14.532H125.507V12.816H120.815V12.024H126.479V15.324H121.835V17.112H126.707V17.904ZM137.416 14.232C137.392 15.472 137.204 16.752 136.852 18.072H135.892C136.26 16.72 136.448 15.404 136.456 14.124V13.02H131.248V12.204H137.416V14.232ZM129.472 19.548H139.648V20.376H129.472V19.548ZM146.049 15.384C146.049 16.16 145.785 16.816 145.257 17.352C144.737 17.888 144.081 18.156 143.289 18.156C142.489 18.156 141.829 17.888 141.309 17.352C140.789 16.816 140.529 16.16 140.529 15.384C140.529 14.624 140.789 13.976 141.309 13.44C141.829 12.896 142.489 12.624 143.289 12.624C144.081 12.624 144.737 12.896 145.257 13.44C145.785 13.976 146.049 14.624 146.049 15.384ZM145.089 15.384C145.089 14.872 144.917 14.42 144.573 14.028C144.237 13.628 143.809 13.428 143.289 13.428C142.761 13.428 142.329 13.628 141.993 14.028C141.657 14.42 141.489 14.872 141.489 15.384C141.489 15.912 141.657 16.372 141.993 16.764C142.329 17.156 142.761 17.352 143.289 17.352C143.809 17.352 144.237 17.156 144.573 16.764C144.917 16.372 145.089 15.912 145.089 15.384ZM150.621 15.744H148.701V21.804H147.753V10.992H148.701V14.868H150.621V15.744ZM153.468 13.416C153.468 12.8 153.72 12.268 154.224 11.82C154.728 11.364 155.4 11.136 156.24 11.136C157.088 11.136 157.764 11.364 158.268 11.82C158.78 12.268 159.036 12.8 159.036 13.416C159.036 14.032 158.78 14.564 158.268 15.012C157.764 15.46 157.088 15.688 156.24 15.696C155.4 15.704 154.728 15.48 154.224 15.024C153.72 14.568 153.468 14.032 153.468 13.416ZM154.44 13.416C154.44 13.8 154.596 14.14 154.908 14.436C155.22 14.724 155.664 14.868 156.24 14.868C156.824 14.868 157.272 14.724 157.584 14.436C157.904 14.14 158.064 13.8 158.064 13.416C158.064 13.032 157.904 12.696 157.584 12.408C157.272 12.112 156.824 11.964 156.24 11.964C155.664 11.964 155.22 12.112 154.908 12.408C154.596 12.696 154.44 13.032 154.44 13.416ZM156.744 18.528H155.76V17.328H151.164V16.5H161.34V17.328H156.744V18.528ZM156.576 19.68L159.924 21.66L159.372 22.368L156.096 20.424C155.488 21.104 154.468 21.744 153.036 22.344L152.508 21.648C154.636 20.8 155.72 19.876 155.76 18.876V18.804H156.744V18.996C156.728 19.228 156.672 19.456 156.576 19.68Z" fill="black"/>
<rect x="0.5" y="0.5" width="279" height="35" rx="4.5" stroke="#9F9F9F"/>
</svg>
