<svg width="31" height="38" viewBox="0 0 31 38" fill="none" xmlns="http://www.w3.org/2000/svg">
<path d="M16.465 37.1397L16.4512 37.1498L16.4381 37.1608C16.178 37.379 15.8453 37.5 15.5 37.5C15.1547 37.5 14.822 37.379 14.5619 37.1608L14.5612 37.1602C14.2563 36.9011 10.7359 33.9093 7.28926 29.6985C3.81042 25.4483 0.501119 20.068 0.5 15.0505C0.540142 11.1814 2.13542 7.48211 4.94257 4.75683C7.75065 2.03065 11.5445 0.499806 15.5 0.5H15.5C19.4555 0.499806 23.2493 2.03065 26.0574 4.75683C28.8646 7.48209 30.4598 11.1814 30.5 15.0504C30.4989 20.069 27.2126 25.4498 23.7465 29.6991C20.2941 33.9317 16.7644 36.9216 16.465 37.1397ZM11.4585 20.1974C12.6556 20.9818 14.0621 21.3999 15.5 21.3999C17.428 21.3999 19.2789 20.649 20.6451 19.3092C22.0117 17.9691 22.7812 16.1494 22.7812 14.25C22.7812 12.8336 22.3529 11.4499 21.5516 10.2739C20.7504 9.09797 19.6126 8.18291 18.2832 7.64293C16.954 7.10299 15.4918 6.96186 14.0813 7.237C12.6708 7.51215 11.3738 8.19153 10.3549 9.19072C9.33584 10.19 8.64074 11.4644 8.35903 12.8532C8.0773 14.2421 8.22199 15.6816 8.77434 16.9893C9.32665 18.2969 10.2613 19.413 11.4585 20.1974Z" fill="white" stroke="black"/>
</svg>
